<?xml version="1.0" standalone="no"?>
<!DOCTYPE svg PUBLIC "-//W3C//DTD SVG 20010904//EN"
 "http://www.w3.org/TR/2001/REC-SVG-20010904/DTD/svg10.dtd">
<svg version="1.0" xmlns="http://www.w3.org/2000/svg"
 width="1335.000000pt" height="1353.000000pt" viewBox="0 0 1335.000000 1353.000000"
 preserveAspectRatio="xMidYMid meet">

<g transform="translate(0.000000,1353.000000) scale(0.100000,-0.100000)"
fill="#000000" stroke="none">
<path d="M6320 13159 c-1470 -77 -2836 -640 -3935 -1620 -148 -131 -449 -438
-571 -579 -482 -562 -842 -1156 -1109 -1830 -225 -570 -356 -1120 -422 -1770
-25 -249 -25 -911 0 -1160 97 -961 362 -1802 823 -2607 632 -1105 1580 -1999
2719 -2563 717 -356 1395 -549 2230 -637 136 -14 255 -18 600 -18 454 1 602
11 960 66 643 98 1302 309 1885 604 1864 945 3160 2744 3460 4804 142 979 58
1974 -246 2913 -524 1616 -1693 2972 -3219 3735 -973 487 -2087 719 -3175 662z
m800 -1014 c1100 -98 2122 -521 2980 -1235 161 -134 536 -509 670 -670 722
-868 1140 -1888 1241 -3025 16 -180 16 -689 0 -870 -100 -1143 -532 -2175
-1281 -3065 -136 -161 -470 -498 -629 -633 -509 -434 -1098 -787 -1706 -1022
-60 -23 -120 -46 -132 -49 l-23 -7 0 570 c0 454 -3 594 -15 688 -35 266 -118
472 -265 657 -55 69 -202 206 -222 206 -4 0 -8 4 -8 8 0 4 53 14 118 21 64 7
194 26 289 41 968 161 1603 522 2006 1140 268 412 416 946 447 1619 18 364
-10 650 -89 933 -85 298 -251 612 -455 853 -42 50 -74 97 -72 105 2 8 16 55
30 104 110 372 113 759 10 1171 -36 143 -101 328 -121 343 -11 8 -56 12 -136
12 -366 0 -894 -212 -1457 -585 l-85 -56 -120 30 c-482 121 -899 171 -1425
171 -504 0 -927 -49 -1376 -161 l-162 -40 -128 84 c-436 285 -866 477 -1198
537 -128 23 -333 27 -358 8 -35 -28 -131 -358 -164 -563 -21 -136 -30 -455
-15 -597 14 -130 53 -314 86 -406 l23 -64 -49 -55 c-107 -117 -252 -331 -326
-478 -126 -250 -214 -554 -244 -844 -15 -149 -6 -651 15 -826 80 -651 267
-1130 598 -1528 359 -431 914 -726 1643 -872 172 -34 399 -69 534 -83 l73 -7
-47 -34 c-64 -46 -178 -162 -230 -235 -86 -121 -163 -301 -200 -471 -30 -138
-35 -258 -35 -823 l0 -573 -22 6 c-151 45 -477 179 -703 290 -1131 556 -2042
1460 -2580 2560 -121 248 -192 423 -276 674 -195 592 -279 1155 -266 1791 8
382 39 663 113 1010 219 1023 714 1937 1454 2680 755 757 1710 1272 2749 1480
264 53 474 79 861 104 107 7 517 -4 680 -19z"/>
</g>
</svg>
