<?xml version="1.0" standalone="no"?>
<!DOCTYPE svg PUBLIC "-//W3C//DTD SVG 20010904//EN"
 "http://www.w3.org/TR/2001/REC-SVG-20010904/DTD/svg10.dtd">
<svg version="1.0" xmlns="http://www.w3.org/2000/svg"
 width="840.000000pt" height="859.000000pt" viewBox="0 0 840.000000 859.000000"
 preserveAspectRatio="xMidYMid meet">

<g transform="translate(0.000000,859.000000) scale(0.100000,-0.100000)"
fill="#000000" stroke="none">
<path d="M1465 8549 c-319 -16 -650 -156 -933 -394 -215 -180 -402 -449 -502
-723 l-30 -83 0 -3048 0 -3047 25 -75 c36 -104 123 -279 190 -379 235 -349
564 -589 985 -717 l125 -38 2855 -3 2855 -2 80 20 c216 57 430 149 584 252
301 202 529 488 665 835 l36 93 0 3053 0 3053 -24 72 c-87 254 -280 540 -487
719 -223 193 -438 307 -734 388 l-128 35 -2711 -2 c-1491 0 -2774 -5 -2851 -9z
m5500 -342 c520 -83 936 -437 1094 -931 60 -186 63 -236 70 -1051 10 -1110 11
-2690 1 -3700 -7 -768 -10 -916 -25 -1009 -43 -280 -175 -537 -380 -741 -155
-156 -327 -263 -530 -331 -180 -60 -237 -65 -880 -74 -743 -11 -3474 -11
-4230 0 -632 9 -712 15 -884 75 -451 154 -794 539 -892 1000 -13 60 -23 163
-29 305 -14 340 -20 2761 -10 4050 10 1300 9 1287 75 1487 65 194 164 359 308
510 199 208 429 337 712 399 124 27 519 31 3140 29 2105 -2 2371 -4 2460 -18z"/>
<path d="M1710 7154 c-294 -99 -479 -283 -551 -549 -29 -106 -31 -287 -5 -395
68 -282 288 -507 577 -590 94 -28 298 -38 405 -20 274 44 503 209 615 445 49
102 69 177 76 290 21 336 -189 670 -500 797 -98 40 -216 58 -376 58 -129 0
-141 -2 -241 -36z m366 -305 c154 -27 255 -85 326 -190 164 -237 83 -563 -167
-680 -219 -103 -491 -59 -642 105 -84 90 -106 147 -111 282 -7 169 28 264 129
359 111 104 297 154 465 124z"/>
<path d="M1490 5490 c-140 -3 -256 -7 -258 -8 -1 -1 -23 -21 -47 -43 l-45 -42
0 -2041 0 -2042 39 -38 38 -37 749 -6 749 -5 58 52 57 52 0 1871 c0 1030 -3
1944 -7 2032 l-6 160 -36 36 c-20 20 -54 42 -76 49 -47 14 -801 21 -1215 10z
m1010 -2135 l0 -1795 -515 0 -515 0 0 1795 0 1795 515 0 515 0 0 -1795z"/>
<path d="M3110 5474 c-14 -10 -42 -33 -62 -53 l-38 -35 0 -2031 0 -2031 44
-43 43 -42 751 -6 750 -6 55 48 54 48 7 881 c4 485 11 1045 16 1245 l10 365
33 70 c64 133 161 210 296 237 76 14 196 0 274 -33 62 -27 128 -101 178 -200
l39 -77 5 -1028 c3 -565 7 -1125 9 -1243 l5 -215 53 -48 53 -49 749 5 749 5
38 38 39 38 0 1191 c0 1192 -7 1502 -35 1639 -24 114 -101 340 -156 456 -311
653 -982 983 -1759 865 -152 -22 -392 -113 -520 -195 -26 -17 -52 -30 -57 -30
-6 0 -14 24 -18 53 -10 70 -26 107 -70 156 l-37 41 -737 0 c-668 0 -739 -2
-761 -16z m1254 -340 c3 -9 6 -101 6 -206 l0 -191 43 -40 c72 -67 145 -85 199
-49 16 10 81 72 145 139 129 131 209 192 329 252 157 78 298 106 534 105 292
-1 505 -60 723 -200 135 -87 286 -252 376 -411 78 -138 163 -384 181 -526 18
-139 28 -655 32 -1567 l3 -875 -515 0 -515 0 -5 1140 -6 1140 -28 90 c-42 139
-89 217 -186 315 -141 142 -276 199 -496 207 -265 11 -420 -48 -581 -221 -82
-88 -142 -196 -197 -357 l-36 -105 0 -1098 c0 -604 -3 -1102 -6 -1107 -3 -5
-225 -9 -510 -9 l-504 0 0 1795 0 1795 504 0 c450 0 505 -2 510 -16z"/>
</g>
</svg>
